G04 EAGLE Gerber RS-274X export*
G75*
%MOMM*%
%FSLAX34Y34*%
%LPD*%
%INSoldermask Bottom*%
%IPPOS*%
%AMOC8*
5,1,8,0,0,1.08239X$1,22.5*%
G01*
%ADD10R,1.854200X1.854200*%
%ADD11C,1.854200*%
%ADD12C,3.003200*%
%ADD13C,2.003200*%
%ADD14C,1.803200*%
%ADD15P,1.869504X8X112.500000*%
%ADD16C,1.491200*%
%ADD17R,1.603200X1.603200*%
%ADD18C,1.603200*%
%ADD19C,0.959600*%
%ADD20C,1.009600*%
%ADD21C,1.109600*%


D10*
X225700Y466500D03*
D11*
X250700Y466500D03*
D10*
X225600Y285700D03*
D11*
X250600Y285700D03*
D12*
X29100Y43600D03*
X855200Y43600D03*
X855200Y470900D03*
X29100Y470900D03*
D13*
X93700Y352600D03*
D14*
X48700Y352600D03*
D15*
X49200Y156300D03*
X23800Y156300D03*
X49200Y181700D03*
X23800Y181700D03*
X49200Y207100D03*
X23800Y207100D03*
X49200Y232500D03*
X23800Y232500D03*
D16*
X381100Y150740D02*
X381100Y137860D01*
X406500Y137860D02*
X406500Y150740D01*
X431900Y150740D02*
X431900Y137860D01*
X457300Y137860D02*
X457300Y150740D01*
X482700Y150740D02*
X482700Y137860D01*
X508100Y137860D02*
X508100Y150740D01*
X533500Y150740D02*
X533500Y137860D01*
X558900Y137860D02*
X558900Y150740D01*
X558900Y217260D02*
X558900Y230140D01*
X533500Y230140D02*
X533500Y217260D01*
X508100Y217260D02*
X508100Y230140D01*
X482700Y230140D02*
X482700Y217260D01*
X457300Y217260D02*
X457300Y230140D01*
X431900Y230140D02*
X431900Y217260D01*
X406500Y217260D02*
X406500Y230140D01*
X381100Y230140D02*
X381100Y217260D01*
X651100Y150440D02*
X651100Y137560D01*
X676500Y137560D02*
X676500Y150440D01*
X701900Y150440D02*
X701900Y137560D01*
X727300Y137560D02*
X727300Y150440D01*
X752700Y150440D02*
X752700Y137560D01*
X778100Y137560D02*
X778100Y150440D01*
X803500Y150440D02*
X803500Y137560D01*
X828900Y137560D02*
X828900Y150440D01*
X828900Y216960D02*
X828900Y229840D01*
X803500Y229840D02*
X803500Y216960D01*
X778100Y216960D02*
X778100Y229840D01*
X752700Y229840D02*
X752700Y216960D01*
X727300Y216960D02*
X727300Y229840D01*
X701900Y229840D02*
X701900Y216960D01*
X676500Y216960D02*
X676500Y229840D01*
X651100Y229840D02*
X651100Y216960D01*
D17*
X444300Y323100D03*
D18*
X469700Y323100D03*
X495100Y323100D03*
X520500Y323100D03*
X545900Y323100D03*
X545900Y475500D03*
X520500Y475500D03*
X495100Y475500D03*
X469700Y475500D03*
X444300Y475500D03*
D17*
X686600Y323100D03*
D18*
X712000Y323100D03*
X737400Y323100D03*
X762800Y323100D03*
X788200Y323100D03*
X788200Y475500D03*
X762800Y475500D03*
X737400Y475500D03*
X712000Y475500D03*
X686600Y475500D03*
D11*
X173561Y190761D03*
X137639Y154839D03*
D19*
X80000Y487000D03*
X160000Y400000D03*
X80000Y440000D03*
X200000Y435000D03*
X280000Y480000D03*
X280000Y440000D03*
X320000Y480000D03*
X320000Y440000D03*
X320000Y400000D03*
X320000Y360000D03*
X143000Y282000D03*
X73000Y280000D03*
X79000Y24000D03*
X520000Y360000D03*
X520000Y400000D03*
X560000Y400000D03*
X560000Y360000D03*
X600000Y480000D03*
X600000Y440000D03*
X600000Y400000D03*
X600000Y360000D03*
X600000Y320000D03*
X600000Y280000D03*
X680000Y440000D03*
X680000Y400000D03*
X680000Y360000D03*
X440000Y440000D03*
X440000Y400000D03*
X440000Y360000D03*
X800000Y400000D03*
X800000Y360000D03*
X840000Y400000D03*
X840000Y360000D03*
X600000Y120000D03*
X520000Y40000D03*
X560000Y40000D03*
X600000Y40000D03*
X640000Y40000D03*
X680000Y40000D03*
X720000Y40000D03*
X760000Y40000D03*
X465000Y56000D03*
X372000Y77000D03*
X491000Y123000D03*
X521000Y124000D03*
X559000Y120000D03*
X262000Y219000D03*
X113000Y216000D03*
X383000Y280000D03*
X337000Y280000D03*
X360000Y250000D03*
X267000Y319000D03*
X239000Y218000D03*
X218000Y218000D03*
X241000Y164000D03*
X225000Y164000D03*
X136000Y23000D03*
X255000Y24000D03*
X303000Y24000D03*
X352000Y24000D03*
X403000Y24000D03*
X456000Y24000D03*
X560000Y72000D03*
X600000Y73000D03*
X640000Y400000D03*
X640000Y440000D03*
X640000Y360000D03*
X640000Y320000D03*
X715000Y440000D03*
X714000Y400000D03*
X763000Y399000D03*
X561000Y440000D03*
X640000Y480000D03*
X640000Y280000D03*
X860000Y272000D03*
X840000Y323000D03*
X860000Y228000D03*
X860000Y185000D03*
X860000Y140000D03*
X842000Y102000D03*
X160000Y362000D03*
X116000Y256000D03*
X8000Y280000D03*
X180000Y257000D03*
X160000Y323000D03*
X329000Y186000D03*
X8000Y354000D03*
X98000Y150000D03*
X79000Y64000D03*
X37000Y127000D03*
X64000Y136000D03*
X207000Y322000D03*
X73000Y323000D03*
X122000Y487000D03*
X178000Y487000D03*
X161000Y434000D03*
X600000Y152000D03*
X760000Y71000D03*
X753000Y106000D03*
X799000Y40000D03*
X8000Y321000D03*
X763000Y360000D03*
X8000Y386000D03*
X408000Y55000D03*
X408000Y77000D03*
X520000Y70000D03*
X689000Y70000D03*
X280000Y400000D03*
X251000Y80000D03*
X33000Y103000D03*
X328000Y147000D03*
D20*
X168000Y114000D03*
X186000Y64000D03*
D19*
X325000Y159000D03*
X323000Y170000D03*
X313000Y216000D03*
D21*
X392000Y367000D03*
D19*
X299000Y217000D03*
D21*
X371000Y367000D03*
D19*
X285000Y217000D03*
D21*
X350000Y367000D03*
D20*
X237000Y134000D03*
X225000Y126000D03*
X216000Y116000D03*
X685000Y171000D03*
X237000Y107000D03*
X208000Y98000D03*
X235000Y89000D03*
X375000Y112000D03*
D21*
X533500Y301000D03*
X558900Y301000D03*
X803500Y303000D03*
X828800Y302000D03*
D20*
X156000Y125000D03*
D19*
X640000Y74000D03*
M02*
