M48
;GenerationSoftware,Autodesk,EAGLE,9.6.2*%
;CreationDate,2024-09-26T08:14:18Z*%
FMAT,2
ICI,OFF
METRIC,TZ,000.000
T10C0.350
T9C0.400
T8C0.500
T7C0.700
T6C0.780
T5C0.800
T4C1.016
T3C1.600
T2C1.800
T1C2.800
%
G90
M71
T1
X2910Y47090
X2910Y4360
X85520Y47090
X85520Y4360
T2
X9370Y35260
T3
X4870Y35260
T4
X2380Y20710
X4920Y23250
X4920Y18170
X2380Y18170
X2380Y23250
X4920Y20710
X4920Y15630
X2380Y15630
T5
X68660Y47550
X71200Y47550
X73740Y47550
X76280Y47550
X78820Y47550
X78820Y32310
X76280Y32310
X73740Y32310
X52050Y32310
X44430Y47550
X71200Y32310
X49510Y32310
X46970Y32310
X44430Y32310
X68660Y32310
X54590Y32310
X52050Y47550
X49510Y47550
X46970Y47550
X54590Y47550
T6
X72730Y22340
X67650Y22340
X55890Y22370
X38110Y14430
X40650Y14430
X43190Y14430
X45730Y14430
X48270Y14430
X50810Y14430
X53350Y14430
X55890Y14430
X65110Y22340
X53350Y22370
X50810Y22370
X48270Y22370
X45730Y22370
X43190Y22370
X40650Y22370
X38110Y22370
X65110Y14400
X67650Y14400
X70190Y14400
X72730Y14400
X75270Y14400
X77810Y14400
X80350Y14400
X82890Y14400
X82890Y22340
X80350Y22340
X77810Y22340
X75270Y22340
X70190Y22340
T7
X25060Y28570
X22560Y28570
X25070Y46650
X22570Y46650
X17356Y19076
X13764Y15484
T8
X82880Y30200
X80350Y30300
X55890Y30100
X53350Y30100
X35000Y36700
X37100Y36700
X39200Y36700
T9
X16800Y11400
X23700Y10700
X15600Y12500
X23500Y8900
X37500Y11200
X20800Y9800
X68500Y17100
X21600Y11600
X22500Y12600
X23700Y13400
X18600Y6400
T10
X6400Y13600
X20700Y32200
X7300Y32300
X12200Y48700
X17800Y48700
X16100Y43400
X60000Y15200
X76000Y7100
X75300Y10600
X79900Y4000
X800Y32100
X76300Y36000
X800Y38600
X68000Y36000
X40800Y7700
X52000Y7000
X68900Y7000
X28000Y40000
X25100Y8000
X3300Y10300
X32800Y14700
X8000Y48700
X16000Y40000
X32500Y15900
X32300Y17000
X31300Y21600
X8000Y44000
X29900Y21700
X20000Y43500
X28500Y21700
X28000Y48000
X28000Y44000
X32000Y48000
X32000Y44000
X32000Y40000
X32000Y36000
X14300Y28200
X7300Y28000
X40800Y5500
X7900Y2400
X52000Y36000
X52000Y40000
X56000Y40000
X56000Y36000
X64000Y7400
X60000Y48000
X60000Y44000
X60000Y40000
X60000Y36000
X60000Y32000
X60000Y28000
X68000Y44000
X68000Y40000
X44000Y44000
X44000Y40000
X44000Y36000
X80000Y40000
X80000Y36000
X84000Y40000
X84000Y36000
X60000Y12000
X52000Y4000
X56000Y4000
X60000Y4000
X64000Y4000
X68000Y4000
X72000Y4000
X76000Y4000
X46500Y5600
X37200Y7700
X49100Y12300
X52100Y12400
X55900Y12000
X26200Y21900
X11300Y21600
X38300Y28000
X33700Y28000
X36000Y25000
X26700Y31900
X23900Y21800
X21800Y21800
X24100Y16400
X22500Y16400
X13600Y2300
X25500Y2400
X30300Y2400
X35200Y2400
X40300Y2400
X45600Y2400
X56000Y7200
X60000Y7300
X86000Y14000
X64000Y40000
X64000Y44000
X64000Y36000
X64000Y32000
X71500Y44000
X71400Y40000
X76300Y39900
X56100Y44000
X64000Y48000
X64000Y28000
X86000Y27200
X84000Y32300
X86000Y22800
X86000Y18500
X84200Y10200
X16000Y36200
X11600Y25600
X800Y28000
X18000Y25700
X16000Y32300
X32900Y18600
X800Y35400
X9800Y15000
X7900Y6400
X3700Y12700
M30